:SAMPLES-PER-SECOND 30
:FULLY-SPECIFIED
:DEGREES
294
root  -15.9717 37.6155 7.88053 175.821 39.3777 178.942
RightUpLeg  -14.7183 -4.37931 -16.4939
RightLeg  49.2862 -8.99278 -11.3708
RightFoot  -2.54191 -1.41102 17.9899
RightToes  -1.74624e-010 0 -3.6325e-017
Spine  8.22391 2.01567 -10.2217
Spine1  23.4722 0.499797 1.47781
HEad  -12.054 24.3903 -6.4524
LeftShoulder1  1.14822 -1.76549 -14.9285
LeftArm  11.0808 6.09536 -56.047
LeftForeArm  71.6623 -79.4022 -75.5977
LeftHand  -2.42647 -3.83062 30.1831
RightShoulder  0.54515 -0.675707 12.3117
RightArm  2.89194 -14.134 61.4018
RightForeArm  149.626 65.7281 156
RightHand  -1.62289 5.85436 -16.9452
LeftUpLeg  -15.7453 -8.28677 -3.13694
LeftLeg  38.2515 1.62672 1.75762
LeftFoot  -16.4212 0.211757 2.53605
LeftToes  3.7286e-011 -1.5702e-010 -9.70233e-012
295
root  -15.0832 38.1264 8.07489 177.465 37.3468 179.533
RightUpLeg  -14.5219 -3.28419 -16.2085
RightLeg  39.1526 -9.44439 -8.47352
RightFoot  -2.12027 -1.50142 18.3
RightToes  -1.74624e-010 0 -3.6325e-017
Spine  8.9541 1.32987 -9.70272
Spine1  22.1264 -0.305251 1.89819
HEad  -11.546 24.992 -6.86468
LeftShoulder1  1.02684 -1.34842 -14.2423
LeftArm  9.62409 3.86877 -58.712
LeftForeArm  74.2071 -79.5026 -77.5576
LeftHand  -2.35483 -3.96144 28.9496
RightShoulder  0.593891 -0.377285 11.9864
RightArm  4.65781 -16.1869 61.7
RightForeArm  150.211 65.1933 156.615
RightHand  -1.66188 5.92547 -17.2341
LeftUpLeg  -15.0832 -11.2448 -1.27754
LeftLeg  35.1995 2.09707 1.96052
LeftFoot  -14.5199 0.104981 0.484133
LeftToes  3.7286e-011 -1.5702e-010 -9.70233e-012
296
root  -14.1592 38.6617 8.32893 179.211 35.2351 179.903
RightUpLeg  -14.2126 -1.24723 -15.6998
RightLeg  28.2347 -7.79141 -4.72935
RightFoot  0.260522 -2.01958 19.6543
RightToes  -1.74624e-010 0 -3.6325e-017
Spine  9.44442 0.73339 -10.1707
Spine1  21.0076 -1.52174 3.36868
HEad  -12.1095 25.8836 -7.97768
LeftShoulder1  0.936846 -1.01646 -13.7647
LeftArm  8.71311 2.81572 -60.4795
LeftForeArm  83.3137 -79.721 -86.952
LeftHand  -2.34062 -4.11549 28.3391
RightShoulder  0.649491 0.00514774 11.4292
RightArm  6.62476 -17.2876 61.0431
RightForeArm  150.965 64.8231 157.065
RightHand  -1.64442 5.93183 -17.0493
LeftUpLeg  -15.0184 -13.7724 0.802928
LeftLeg  32.0462 2.09069 1.77731
LeftFoot  -11.8275 0.0609086 -2.29813
LeftToes  3.7286e-011 -1.5702e-010 -9.70233e-012
297
root  -13.1875 39.0398 8.58622 -179.237 33.2742 -179.846
RightUpLeg  -14.0836 0.216652 -15.1311
RightLeg  19.3883 -5.23796 -2.37249
RightFoot  3.91523 -2.99695 22.2907
RightToes  -1.74624e-010 0 -3.6325e-017
Spine  9.52895 0.181917 -10.2843
Spine1  20.3631 -2.41742 4.24078
HEad  -12.8464 26.3856 -8.72521
LeftShoulder1  0.927339 -1.07944 -13.2229
LeftArm  8.52774 1.99475 -61.0406
LeftForeArm  91.2655 -79.647 -95.8581
LeftHand  -2.33088 -4.18601 28.0286
RightShoulder  0.697646 0.374073 10.8381
RightArm  7.70979 -17.8484 60.6582
RightForeArm  150.664 64.8376 157.018
RightHand  -1.62164 5.94745 -16.7988
LeftUpLeg  -15.4473 -14.787 2.93802
LeftLeg  29.8358 1.05131 1.00436
LeftFoot  -9.43197 0.124206 -4.14997
LeftToes  3.7286e-011 -1.5702e-010 -9.70233e-012
298
root  -12.2037 39.1582 8.82428 -178.123 31.4454 -179.47
RightUpLeg  -14.059 -1.97391 -13.8915
RightLeg  14.8375 -2.39429 -1.59949
RightFoot  6.33999 -3.7945 24.3926
RightToes  -1.74624e-010 0 -3.6325e-017
Spine  9.66633 -0.30556 -9.41222
Spine1  19.6917 -2.88033 4.42929
HEad  -12.8062 26.3777 -8.54665
LeftShoulder1  0.914445 -1.13651 -12.6373
LeftArm  9.28566 1.06219 -60.7838
LeftForeArm  94.7051 -79.4678 -100.553
LeftHand  -2.27439 -4.09075 27.6417
RightShoulder  0.723216 0.614983 10.3475
RightArm  7.99004 -18.2881 60.6842
RightForeArm  149.525 64.8704 156.863
RightHand  -1.6018 5.88483 -16.6881
LeftUpLeg  -16.0372 -15.3259 5.13622
LeftLeg  29.2328 -0.152659 0.254032
LeftFoot  -8.61142 0.186695 -5.73239
LeftToes  3.7286e-011 -1.5702e-010 -9.70233e-012
299
root  -11.2315 38.9846 9.06932 -177.962 29.8637 -179.174
RightUpLeg  -14.0977 -5.05362 -12.4907
RightLeg  15.5935 -1.17413 -1.21586
RightFoot  4.54452 -3.39679 24.1861
RightToes  -1.74624e-010 0 -3.6325e-017
Spine  10.4077 -0.537307 -8.32864
Spine1  18.8331 -3.13824 4.81973
HEad  -12.1849 26.1932 -7.82081
LeftShoulder1  0.864833 -0.93393 -12.4003
LeftArm  10.5667 0.267114 -59.8127
LeftForeArm  97.5757 -79.2686 -104.371
LeftHand  -2.19746 -3.90321 27.263
RightShoulder  0.718426 0.616463 10.213
RightArm  8.04165 -18.222 60.4478
RightForeArm  148.943 64.6226 157.044
RightHand  -1.54616 5.66975 -16.4254
LeftUpLeg  -16.4559 -15.9634 7.13296
LeftLeg  30.4456 -0.938446 -0.249349
LeftFoot  -9.77467 0.163375 -7.86291
LeftToes  3.7286e-011 -1.5702e-010 -9.70233e-012
300
root  -10.2696 38.539 9.34251 -179.022 28.9669 -179.166
RightUpLeg  -14.4065 -5.40178 -11.4067
RightLeg  20.5793 -1.92456 -1.05932
RightFoot  -1.24289 -1.98752 22.0348
RightToes  -1.74624e-010 0 -3.6325e-017
Spine  11.548 -0.47363 -7.76515
Spine1  18.7367 -3.1568 5.17142
HEad  -12.211 26.16 -7.5505
LeftShoulder1  0.858518 -0.8595 -12.603
LeftArm  11.0519 0.00758643 -58.3336
LeftForeArm  102.646 -78.9642 -109.626
LeftHand  -2.15518 -3.78632 27.0866
RightShoulder  0.68562 0.372538 10.5013
RightArm  7.97818 -16.7083 59.7717
RightForeArm  149.039 64.4204 157.25
RightHand  -1.47435 5.44129 -16.0045
LeftUpLeg  -16.3794 -15.9558 8.53097
LeftLeg  33.3438 -1.42071 -0.652827
LeftFoot  -12.4203 -0.0162774 -9.65437
LeftToes  3.7286e-011 -1.5702e-010 -9.70233e-012
301
root  -9.38134 37.953 9.60455 179.413 28.9765 -178.935
RightUpLeg  -15.2393 -4.77494 -9.79565
RightLeg  27.155 -2.04791 -1.36642
RightFoot  -7.14439 -0.763197 19.441
RightToes  -1.74624e-010 0 -3.6325e-017
Spine  12.2941 -0.367232 -6.93721
Spine1  20.4289 -2.85448 4.70049
HEad  -13.7174 26.4549 -8.52214
LeftShoulder1  0.955793 -1.26389 -13.0134
LeftArm  9.90024 0.400243 -57.1352
LeftForeArm  105.728 -78.8148 -112.133
LeftHand  -2.17574 -3.80273 27.2859
RightShoulder  0.648613 0.107314 10.8087
RightArm  7.4992 -13.4478 59.2346
RightForeArm  148.55 64.8491 156.776
RightHand  -1.46284 5.37 -15.9829
LeftUpLeg  -15.8209 -15.2982 9.69757
LeftLeg  37.1698 -1.30752 -0.68913
LeftFoot  -15.5466 -0.299803 -10.6752
LeftToes  3.7286e-011 -1.5702e-010 -9.70233e-012
302
root  -8.65029 37.439 9.78221 178.226 29.1909 -178.318
RightUpLeg  -16.2086 -4.41729 -8.12254
RightLeg  32.8901 -1.85185 -1.53878
RightFoot  -10.5191 -0.196226 17.777
RightToes  -1.74624e-010 0 -3.6325e-017
Spine  12.2285 -0.554543 -5.44372
Spine1  23.1796 -2.56755 3.66945
HEad  -15.8199 27.0031 -10.3044
LeftShoulder1  1.10074 -1.86482 -13.5211
LeftArm  8.03516 1.30284 -57.0399
LeftForeArm  100.899 -79.2115 -106.48
LeftHand  -2.26191 -3.81784 28.2694
RightShoulder  0.642383 0.0882391 10.726
RightArm  6.58547 -9.79574 59.2442
RightForeArm  147.175 65.8447 155.602
RightHand  -1.5196 5.41106 -16.5229
LeftUpLeg  -15.277 -15.1051 10.8534
LeftLeg  40.7235 -0.265429 0.149152
LeftFoot  -17.8012 -0.548296 -11.5877
LeftToes  3.7286e-011 -1.5702e-010 -9.70233e-012
